<?xml version="1.0" encoding="UTF-8"?>
<svg width="60px" height="300px" viewBox="0 0 60 300" version="1.1" xmlns="http://www.w3.org/2000/svg" xmlns:xlink="http://www.w3.org/1999/xlink">
    <!-- Generator: Sketch 60.1 (88133) - https://sketch.com -->
    <title>Gastro-Berufe</title>
    <desc>Created with Sketch.</desc>
    <defs>
        <path d="M33.1760177,33.0069234 C31.935121,31.69764 33.7885306,29.8351981 35.0726529,30.9668051 L35.0726529,30.9668051 L43.4400928,39.6826303 C45.655436,41.936812 46.4159482,43.9426079 45.7033068,45.6435022 C44.9791815,47.3738157 42.9755791,48.000006 41.8052627,48.000006 C41.7391985,48.000006 41.4478452,47.979619 41.3817811,47.9704577 C39.3805013,47.6789754 33.9934328,41.8866187 29.0435233,36.2469064 C27.9506258,34.8488492 30.1979688,33.1457614 31.3659627,34.6507858 C36.151873,40.0788863 40.4984309,44.7578295 41.7757145,45.217698 L41.7757145,45.217698 L41.805,46.585006 L41.8052627,45.217698 C42.1977123,45.217698 42.8578566,44.990011 43.0862089,44.6609582 L43.1372557,44.5687982 C43.3034484,44.1725422 42.9642244,43.1639023 41.4478452,41.6224911 L41.4478452,41.6224911 Z M47.8685857,1.00567212 C49.271159,4.27752591 39.0594707,22.7473644 34.4487852,27.5948228 C29.4988757,32.79286 25.7648308,34.7031726 22.9780067,33.5169853 C21.3204671,32.8180212 18.790932,35.9942626 16.9420384,38.2369605 C16.3044934,39.0088274 15.6260454,39.9537256 14.9292748,40.9259786 C12.7207703,44.004285 10.6329103,46.9095601 8.26943883,47.2419454 C8.2203036,47.2492744 8.03846198,47.2608976 7.93624419,47.2652537 L7.87782798,47.2669776 C6.74635005,47.264655 4.80868281,46.6566582 4.10971874,44.976409 C3.42210944,43.3233854 4.16894423,41.3858472 6.32506194,39.2205682 L44.6149254,0.764383067 C46.072079,-0.428642926 47.383556,-0.130450944 47.8685857,1.00567212 Z M44.6763444,4.50526665 L8.23305192,41.1125583 C6.76673704,42.5857118 6.43435169,43.5578358 6.59370569,43.942737 C6.73351141,44.2787675 7.35167662,44.5306622 7.77117591,44.5703111 L7.88015055,44.5757659 L7.898344,44.5780885 C9.12324079,44.4050571 11.3045197,41.3654602 12.747996,39.3572127 C13.4811534,38.3325729 14.1983109,37.3376104 14.8700493,36.5248404 C17.1104247,33.8085966 19.649121,30.7279676 22.5066544,30.7279676 C23.0303936,30.725516 23.5426489,30.8302897 24.0298722,31.0397079 C24.2302582,31.1262881 24.4396765,31.1649976 24.6832881,31.1649976 C25.6737345,31.1649976 28.0075287,30.4613884 32.5019567,25.7392197 C36.8530307,21.1672437 42.7068064,9.83078707 44.6763444,4.50526665 Z M1.05644445,11.2743924 C-0.551030981,9.44149879 1.62340921,7.73841096 3.10340144,9.39595064 L3.10340144,9.39595064 L3.126111,9.41414409 L10.5031045,17.421973 C11.873807,18.9086749 14.1734078,19.3640273 16.0426883,18.5307414 C16.5914596,18.2871298 17.2288756,18.4191291 17.6296477,18.8586106 C18.5129979,19.8148637 18.9046088,20.3180868 19.7493785,21.2743399 C20.7831796,22.5561396 18.9366086,24.4027105 17.7594535,23.2233619 C17.0923602,22.4673659 16.9056515,22.1896899 16.2112036,21.4291778 C15.5077234,21.6362735 14.7790821,21.7410471 14.0345698,21.7410471 L14.0345698,21.7410471 L13.7458119,21.7355646 C11.7291354,21.6589609 9.81677381,20.7827823 8.45627656,19.3071244 L8.45627656,19.3071244 Z M10.2503317,2.83856572 C8.61563056,1.25392888 10.6442651,-0.665544908 12.3018047,0.955607869 L12.3018047,0.955607869 L19.6811208,8.96769483 C21.5891108,11.0396839 22.1674304,14.0247005 21.2430481,16.6635254 L21.2430481,16.6635254 L22.791298,18.2960329 C24.0435495,19.6575742 22.1013662,21.5815641 20.8035666,20.2427324 L20.8035666,20.2427324 L18.6019007,17.9317768 C18.1897738,17.5059726 18.0941614,16.866234 18.3628052,16.3379787 C19.2803487,14.5256011 18.9888664,12.3216127 17.6341638,10.8507817 L17.6341638,10.8507817 L10.2571703,2.8454044 Z M5.33954377,3.52216353 C5.8661551,3.16334739 6.59448848,3.25199151 7.01731637,3.74707708 L7.01731637,3.74707708 L16.5617824,14.937857 C17.0149413,15.4684349 16.9510707,16.2720436 16.4206218,16.7252025 L16.4206218,16.7252025 L16.3110731,16.808933 C15.7845667,17.1676592 15.0562333,17.0791275 14.6334054,16.5840419 L14.6334054,16.5840419 L5.0864878,5.39326198 C4.63565146,4.86268412 4.69952209,4.05894641 5.22997092,3.60591653 L5.22997092,3.60591653 Z" id="path-1"></path>
        <path d="M16.2555925,25.5555556 C18.131613,25.5555556 19.8755636,26.3686939 21.0540397,27.7628213 L21.0540397,27.7628213 L27.0808262,27.7628213 C29.5991373,27.7628213 31.6479267,29.7696185 31.6479267,32.236314 C31.6479267,32.7587818 31.5551184,33.2603051 31.3863026,33.7268036 L31.3863026,33.7268036 L40.1764032,31.3951031 C41.8011316,30.9641574 43.503934,31.2863326 44.847722,32.279083 C46.1917796,33.2718333 46.9761126,34.7867875 46.999873,36.4355926 C47.0073782,36.9728447 46.6817856,37.4611677 46.1762367,37.6701724 L46.1762367,37.6701724 L32.3283109,43.3959334 C30.4685521,44.1648947 28.5019695,44.5548315 26.483098,44.5548315 L26.483098,44.5548315 L11.3811377,44.5541274 L11.3811377,44.5541274 L11.3091731,44.5506074 C10.4121764,45.4443555 9.16497006,46 7.78740089,46 L7.78740089,46 L2.34765131,46 C1.60338841,46 1,45.4089787 1,44.6799703 L1,44.6799703 L1,27.1601837 C1,26.4311753 1.60338841,25.840154 2.34765131,25.840154 L2.34765131,25.840154 L7.78740089,25.840154 C9.32084839,25.840154 10.6932965,26.5278895 11.6003557,27.6049457 C12.7435233,26.3486294 14.4064352,25.5555556 16.2555925,25.5555556 Z M7.78740089,28.4801254 L3.69530262,28.4801254 L3.69530262,43.3598525 L7.78749073,43.3598525 C8.97360357,43.3598525 9.94723672,42.4544881 10.0274669,41.3123104 L10.0274669,41.3123104 L10.0185724,38.4489899 L10.0185724,31.6647411 C10.0185724,31.5298341 10.0246817,31.3964231 10.0334864,31.2637161 L10.0334864,31.2637161 L10.0334864,30.680175 C10.0334864,29.4670676 9.02589244,28.4801254 7.78740089,28.4801254 L7.78740089,28.4801254 Z M16.2556823,28.195615 C14.4096696,28.195615 12.8897884,29.5863983 12.7288789,31.3542702 L12.7288789,31.3542702 L12.7288789,41.159891 C12.7288789,41.2346047 12.7265429,41.3088783 12.7231289,41.3828 L12.7231289,41.3828 L12.7247461,41.914068 L26.483098,41.914772 C28.1399005,41.914772 29.7538477,41.5947968 31.2801077,40.9636466 L31.2801077,40.9636466 L44.1571855,35.6393507 C43.9839674,35.1467156 43.6640349,34.7113698 43.2249701,34.3869945 C42.5504257,33.8888152 41.6961945,33.7271556 40.8809553,33.9434645 L40.8809553,33.9434645 L30.6251492,36.6639577 C30.5103293,36.6943184 30.3918258,36.7098068 30.2728731,36.7098068 L30.2728731,36.7098068 L21.7033381,36.7098948 L20.6637599,37.7280777 C20.1374572,38.2435933 19.2842142,38.2435933 18.7579114,37.7280777 C18.2316087,37.2125621 18.2316087,36.3767193 18.7579114,35.8612917 L18.7579114,35.8612917 L20.1921718,34.456428 C20.4449013,34.2088784 20.787654,34.0698353 21.1450511,34.0698353 L21.1450511,34.0698353 L27.0825333,34.0697473 C28.1138459,34.0687793 28.9526241,33.2467528 28.9526241,32.236314 C28.9526241,31.2253472 28.1129474,30.4028807 27.0808262,30.4028807 L27.0808262,30.4028807 L20.3726672,30.4028807 C19.9136572,30.4028807 19.4861822,30.1740756 19.2383941,29.7956671 C18.5821777,28.7937645 17.467131,28.195615 16.2556823,28.195615 Z M24.0000448,0 C24.7417022,0 25.3429782,0.592084196 25.3429782,1.32240365 L25.3429782,1.32240365 L25.3429782,2.93035834 L25.4240019,2.93035834 C34.6112784,2.93035834 42.1659954,9.9455334 42.854025,18.8218594 L42.854025,18.8218594 L44.6348443,18.8218594 C45.3765017,18.8218594 45.9777778,19.4139436 45.9777778,20.144263 C45.9777778,20.8745825 45.3765017,21.4666667 44.6348443,21.4666667 L44.6348443,21.4666667 L3.3651557,21.4666667 C2.6234983,21.4666667 2.02222222,20.8745825 2.02222222,20.144263 C2.02222222,19.4139436 2.6234983,18.8218594 3.3651557,18.8218594 L3.3651557,18.8218594 L5.14597501,18.8218594 C5.8340046,9.9455334 13.3887216,2.93035834 22.5760876,2.93035834 L22.5760876,2.93035834 L22.6571113,2.93035834 L22.6571113,1.32240365 C22.6571113,0.592084196 23.2583874,0 24.0000448,0 Z M25.4240914,5.57516564 L22.5760876,5.57516564 C16.6670013,5.57516564 11.5561546,9.00415832 9.18713042,13.9473913 L9.18713042,13.9473913 L11.4726241,13.9473913 C12.2142815,13.9473913 12.8155576,14.5394755 12.8155576,15.269795 C12.8155576,16.0001144 12.2142815,16.5921986 11.4726241,16.5921986 L11.4726241,16.5921986 L8.3753719,16.5921986 C8.32577289,16.5921986 8.27689012,16.5892012 8.22863404,16.5839997 C8.04268252,17.3100875 7.91134362,18.0573337 7.8412425,18.8218594 L7.8412425,18.8218594 L40.1589366,18.8218594 C39.4781588,11.4057315 33.1295751,5.57516564 25.4240914,5.57516564 L25.4240914,5.57516564 Z" id="path-3"></path>
        <path d="M44.2743392,3.86975439 C42.4154386,1.98512281 40.0596023,0.746947368 37.4618012,0.288842105 C34.924538,-0.158409357 32.3481637,0.16580117 30.0109474,1.2265731 C28.7223392,1.81146199 27.801731,2.99443275 27.5481637,4.39101754 C27.2927251,5.79817544 27.7434386,7.24135673 28.7540585,8.25169591 C30.0262924,9.52346199 31.9761404,9.88238596 33.6061754,9.14460819 C35.1009123,8.46802339 36.8870175,8.78746199 38.050152,9.94011696 C38.794386,10.677614 39.2029006,11.6691462 39.2004678,12.7321637 C39.1979415,13.846924 38.7551813,14.8941287 37.9540585,15.6807485 C34.7646316,18.8120702 32.2589942,18.8850526 29.3055439,15.9326316 L26.148117,12.7760468 C23.6877661,10.316538 19.6849591,10.316538 17.2247953,12.7760468 L1.56369591,28.4329357 C0.557192982,29.4391579 0.0029005848,30.777076 0.0029005848,32.2001404 C0.0029005848,33.6232047 0.557192982,34.9611228 1.56369591,35.9674386 L12.0409825,46.4418246 C13.0798596,47.4803275 14.4443509,47.9995322 15.8088421,47.9995322 C17.1733333,47.9995322 18.5378246,47.4803275 19.5767018,46.4418246 L44.1230409,21.9023158 C49.1032515,16.9234152 49.1711813,8.83405848 44.2743392,3.86975439 Z M42.1382924,19.917193 L17.5920468,44.4567018 C16.6084678,45.4397193 15.008655,45.4396257 14.0256374,44.4567953 L3.54835088,33.9823158 C3.07218713,33.5062456 2.80991813,32.8733567 2.80991813,32.2001404 C2.80991813,31.5270175 3.07218713,30.8941287 3.54835088,30.4180585 L19.2094503,14.7613567 C19.8925848,14.0785029 20.7894269,13.7372632 21.6866433,13.7372632 C22.5835789,13.7372632 23.4807953,14.0786901 24.1636491,14.7613567 L27.321076,17.9179415 C29.3149942,19.9112047 31.3503626,20.9076023 33.4146433,20.9074152 C35.5578947,20.9072281 37.7322105,19.8326082 39.9207485,17.6839298 C41.2427602,16.3859649 42.003462,14.5834854 42.0076725,12.738807 C42.011883,10.9186433 41.3081637,9.21674854 40.0261988,7.94638596 C38.0421053,5.98025731 34.9968655,5.4342924 32.4488421,6.5874152 C31.8769591,6.84640936 31.1897076,6.71728655 30.738807,6.2665731 C30.3740819,5.90194152 30.2179181,5.40116959 30.310269,4.89244444 C30.400655,4.39447953 30.7144795,3.98989474 31.1712749,3.78264327 C34.9206082,2.08084211 39.3832982,2.90807018 42.2762105,5.84093567 C46.0930994,9.71069006 46.031345,16.0252632 42.1382924,19.917193 L42.1382924,19.917193 Z M13.6797193,24.2591813 C12.3344094,25.604117 11.5934503,27.3921871 11.5934503,29.2943158 C11.5934503,31.1963509 12.3344094,32.9845146 13.6796257,34.3293567 C15.0682573,35.7175205 16.8915088,36.4114152 18.7155088,36.4114152 C20.5390409,36.4114152 22.3631345,35.7172398 23.7514854,34.3294503 C25.0967018,32.9845146 25.8375673,31.1964444 25.8375673,29.2944094 C25.8375673,27.3923743 25.0967018,25.6043041 23.7514854,24.2592749 C20.9745029,21.4832281 16.4564211,21.4832281 13.6797193,24.2591813 L13.6797193,24.2591813 Z M18.7155088,24.9828304 C19.8206316,24.9828304 20.9255673,25.4033216 21.7668304,26.2443041 C22.2385965,26.7159766 22.5866667,27.277848 22.7970058,27.8907135 L14.6339181,27.8907135 C14.8442573,27.277848 15.1924211,26.715883 15.6641871,26.2443041 C16.5054503,25.4033216 17.6105731,24.9828304 18.7155088,24.9828304 L18.7155088,24.9828304 Z M15.6641871,32.3441404 C15.1925146,31.8725614 14.8443509,31.3105965 14.6340117,30.697731 L22.7970994,30.697731 C22.5867602,31.3105965 22.2386901,31.8725614 21.7670175,32.3441404 C20.0843041,34.0262924 17.346807,34.0261988 15.6641871,32.3441404 Z" id="path-5"></path>
        <path d="M47.9225263,37.7924678 L46.8831813,32.0617544 C46.804117,31.6255439 46.5236023,31.2523977 46.1265029,31.0552515 L43.5584561,29.7797427 L43.0394386,28.0948772 C42.9027368,27.6509942 42.5552281,27.3034854 42.111345,27.1667836 L40.5601871,26.6889357 L40.0823392,25.1377778 C39.9456374,24.6938947 39.5981287,24.3464795 39.1542456,24.2097778 L37.6030877,23.7319298 L37.1252398,22.1807719 C37.0578713,21.9621988 36.9381988,21.7632749 36.7763275,21.6014971 L34.2253099,19.0504795 L34.6276491,18.6482339 C35.5997193,17.6762573 36.134924,16.3839064 36.134924,15.0093099 C36.134924,13.6347135 35.5996257,12.3424561 34.6276491,11.370386 L28.3676257,5.11036257 C27.3956491,4.13838596 26.1033918,3.60308772 24.7287018,3.60308772 C24.0888889,3.60308772 23.4675088,3.72051462 22.8873918,3.94245614 C21.0226901,1.54526316 18.1117193,-5.68434189e-14 14.8464094,-5.68434189e-14 C9.2314386,-5.68434189e-14 4.66339181,4.56804678 4.66339181,10.1830175 C4.66339181,10.9351111 4.74460819,11.6740117 4.90432749,12.3945731 C3.06208187,12.6739649 1.64575439,14.2682573 1.64575439,16.1873216 L1.64575439,44.0703626 C1.64575439,46.1856374 3.36673684,47.9066199 5.4820117,47.9066199 L19.3299649,47.9066199 C21.4452398,47.9066199 23.1662222,46.1856374 23.1662222,44.0703626 L23.1662222,27.6251696 C23.2791579,27.6324678 23.3925614,27.6375205 23.506807,27.6375205 C24.8813099,27.6375205 26.1737544,27.1022222 27.145731,26.1302456 L27.5480702,25.728 L39.8173567,37.9972865 C40.019462,38.1993918 40.2784561,38.3349708 40.5597193,38.3858713 L46.2917427,39.424 C46.3751111,39.4390643 46.4586667,39.4464561 46.5419415,39.4464561 C46.9106901,39.4464561 47.2687719,39.3008655 47.5344094,39.0352281 C47.8595556,38.7098012 48.0046784,38.2454269 47.9225263,37.7924678 L47.9225263,37.7924678 Z M14.8464094,2.80701754 C17.177731,2.80701754 19.258386,3.89539181 20.6109942,5.58933333 L13.8492632,12.3510643 L7.79555556,12.3510643 C7.58091228,11.6531462 7.47040936,10.9275322 7.47040936,10.1831111 C7.47040936,6.11583626 10.7792281,2.80701754 14.8464094,2.80701754 L14.8464094,2.80701754 Z M20.3592047,44.070269 C20.3592047,44.6377544 19.8973567,45.0995088 19.3298713,45.0995088 L5.48191813,45.0995088 C4.91443275,45.0995088 4.45267836,44.6377544 4.45267836,44.070269 L4.45267836,16.1872281 C4.45267836,15.6197427 4.91443275,15.1579883 5.48191813,15.1579883 L6.82339181,15.1579883 C6.83695906,15.1579883 6.85052632,15.1583626 6.86409357,15.1579883 L12.2166082,15.1579883 C12.0720468,15.8407485 12.0660585,16.5470877 12.2006082,17.2314386 C11.6738246,17.3096608 11.2145029,17.6842105 11.0571228,18.2293333 C10.8420117,18.9740351 11.2713918,19.7521404 12.0160936,19.9672515 C12.6856608,20.160655 13.3755322,20.2835088 14.0736374,20.3360936 L19.867883,26.1303392 C20.0234854,26.2859415 20.1881637,26.4290994 20.3592047,26.5618713 L20.3592047,44.070269 L20.3592047,44.070269 Z M15.8377544,28.2574035 C16.6129591,28.2574035 17.2412632,28.8858012 17.2412632,29.6609123 L17.2412632,29.6609123 L17.2412632,40.8889825 C17.2412632,41.6640936 16.6128655,42.2924912 15.8377544,42.2924912 C15.0626433,42.2924912 14.4342456,41.6640936 14.4342456,40.8889825 L14.4342456,40.8889825 L14.4342456,36.6784561 L10.3775439,36.6784561 L10.3775439,40.8889825 C10.3775439,41.6640936 9.7491462,42.2924912 8.97403509,42.2924912 C8.19892398,42.2924912 7.57052632,41.6640936 7.57052632,40.8889825 L7.57052632,40.8889825 L7.57052632,29.6609123 C7.57052632,28.8858012 8.19892398,28.2574035 8.97403509,28.2574035 C9.7491462,28.2574035 10.3775439,28.8858012 10.3775439,29.6609123 L10.3775439,29.6609123 L10.3775439,33.8714386 L14.4342456,33.8714386 L14.4342456,29.6609123 C14.4342456,28.8858012 15.0626433,28.2574035 15.8377544,28.2574035 Z M24.7288889,6.41010526 C25.353731,6.41010526 25.9411462,6.65347368 26.3829708,7.09520468 L32.6429942,13.3552281 C33.0848187,13.7970526 33.3280936,14.3844678 33.3280936,15.0093099 C33.3280936,15.634152 33.0847251,16.2215673 32.6429942,16.6632982 L31.5156023,17.7905965 C31.3752515,17.9309474 31.2662456,18.099462 31.195883,18.2850058 C31.1493801,18.4073918 31.1070877,18.5124678 31.066386,18.6063158 C30.837614,19.1347836 30.9547602,19.7493333 31.3618713,20.156538 L34.5453099,23.3399766 L35.1391813,25.2677427 C35.275883,25.7116257 35.6233918,26.0590409 36.0672749,26.1958363 L37.6184327,26.6736842 L38.0962807,28.2248421 C38.2329825,28.6687251 38.5804912,29.0161404 39.0243743,29.1528421 L40.5755322,29.6306901 L41.0533801,31.181848 C41.1665965,31.5494737 41.4257778,31.8545029 41.770386,32.0256374 L44.2471111,33.2557661 L44.7994386,36.3009123 L41.4916491,35.7019883 L28.6540351,22.8643743 C28.2467368,22.4571696 27.6322807,22.3399298 27.1036257,22.5689825 C27.0096842,22.6097778 26.9074152,22.6509474 26.7819415,22.6985731 C26.5965848,22.7690292 26.4282573,22.8779415 26.2880936,23.0181053 L25.1607953,24.1454035 C24.7189708,24.5872281 24.1315556,24.8305029 23.5067135,24.8305029 C22.8818713,24.8305029 22.2944561,24.5871345 21.8526316,24.1454035 L15.7034854,17.9962573 C15.6942222,17.9864327 15.6843977,17.9771696 15.6748538,17.9676257 L15.5927018,17.8854737 C14.7778246,17.0705029 14.6916491,15.7992047 15.3330526,14.8870175 C15.4958596,14.768 15.6323743,14.6154854 15.7313684,14.4386433 L21.9540585,8.21604678 C22.1277193,8.84276023 22.2225029,9.50184795 22.2225029,10.1831111 C22.2225029,11.3629006 21.9527485,12.4894503 21.4208187,13.5314152 C21.162386,14.0377076 21.2418246,14.6266199 21.574269,15.0440234 C21.6101988,15.0907135 21.6480936,15.1359064 21.6899181,15.177731 C21.9519064,15.4387836 22.313076,15.5884912 22.6826667,15.5884912 C23.0522573,15.5884912 23.4134269,15.4387836 23.6754152,15.177731 C23.8355088,15.0176374 23.9532164,14.8193684 24.0206784,14.6048187 C24.6808889,13.2355556 25.029614,11.7120936 25.029614,10.1830175 C25.029614,8.86446784 24.7776374,7.60374269 24.3194386,6.44631579 C24.4533333,6.42283041 24.5901287,6.41010526 24.7288889,6.41010526 Z" id="path-7"></path>
        <path d="M46.3175938,46.3219688 L44.3420938,36.2180625 C43.8613438,33.759 42.090125,31.7271563 39.7194688,30.9152813 L30.7929688,27.8584688 L30.7929688,27.1574063 C32.7220625,25.5797813 34.080125,23.3295 34.5062188,20.767875 L35.3105,20.767875 C37.8951875,20.767875 39.998,18.6650625 39.998,16.080375 L39.998,15.5851875 C39.998,13.0005 37.8951875,10.8976875 35.3105,10.8976875 L34.649,10.8976875 L34.649,9.47278125 L34.649,1.40625 C34.649,0.629625 34.019375,0 33.24275,0 L15.0937813,0 C14.3171563,0 13.6875313,0.629625 13.6875313,1.40625 L13.6875313,9.47278125 L13.6875313,11.4017813 L13.0260313,11.4017813 C10.4413438,11.4017813 8.33853125,13.5045938 8.33853125,16.0892813 L8.33853125,16.5844688 C8.33853125,19.1691563 10.4413438,21.2719688 13.0260313,21.2719688 L13.9269688,21.2719688 C14.448125,23.66775 15.7907188,25.7601563 17.6444375,27.2384063 L17.6444375,27.8455313 L8.71221875,30.913875 C6.34503125,31.7270625 4.57625,33.7580625 4.09596875,36.2144063 L2.11971875,46.321875 C1.97065625,47.0840625 2.46771875,47.8228125 3.23,47.971875 C3.321125,47.9896875 3.411875,47.9983125 3.50140625,47.9983125 C4.16046875,47.9983125 4.74884375,47.53275 4.88,46.8615938 L6.85625,36.754125 C7.1444375,35.280375 8.2056875,34.0618125 9.62590625,33.5739375 L17.9899063,30.7007813 C18.356,31.252125 19.3205,32.5107188 20.9463125,33.3426563 L15.6350938,37.032 C15.2567188,37.2947813 15.0311563,37.7262188 15.0311563,38.1869063 L15.0311563,46.59375 C15.0311563,47.370375 15.6607813,48 16.4374063,48 C17.2140313,48 17.8436563,47.370375 17.8436563,46.59375 L17.8436563,38.9222813 L24.753125,34.12275 C28.1165,33.9239063 29.8938125,31.5942188 30.448625,30.7133438 L38.8083125,33.576 C40.2305938,34.0630313 41.2933438,35.2821563 41.5818125,36.7575938 L43.5573125,46.8615938 C43.6884688,47.53275 44.2768438,47.9983125 44.9359063,47.9983125 C45.0253438,47.9983125 45.1161875,47.9896875 45.2073125,47.971875 C45.9695938,47.8229063 46.4666563,47.0841563 46.3175938,46.3219688 L46.3175938,46.3219688 Z M35.3105,13.7101875 C36.344375,13.7101875 37.1855,14.5513125 37.1855,15.5851875 L37.1855,16.080375 C37.1855,17.11425 36.344375,17.955375 35.3105,17.955375 L34.649,17.955375 L34.649,13.7101875 L35.3105,13.7101875 Z M16.5000313,2.8125 L31.8365,2.8125 L31.8365,8.06653125 L16.5000313,8.06653125 L16.5000313,2.8125 Z M11.151125,16.5844688 L11.151125,16.0892812 C11.151125,15.0554063 11.99225,14.2142812 13.026125,14.2142812 L13.687625,14.2142812 L13.687625,18.4594687 L13.026125,18.4594687 C11.99225,18.4594687 11.151125,17.6183437 11.151125,16.5844688 Z M22.0625,45.1855312 C22.4328125,45.1855312 22.7946875,45.3355312 23.0571875,45.5970937 C23.31875,45.8586562 23.46875,46.2214687 23.46875,46.5917812 C23.46875,46.9620937 23.31875,47.3239687 23.0571875,47.5864687 C22.7946875,47.8480312 22.4328125,47.9980312 22.0625,47.9980312 C21.6921875,47.9980312 21.329375,47.8480312 21.0678125,47.5864687 C20.80625,47.3239687 20.65625,46.9620937 20.65625,46.5917812 C20.65625,46.2214687 20.80625,45.8595937 21.0678125,45.5970937 C21.329375,45.3355313 21.6921875,45.1855312 22.0625,45.1855312 Z M22.0625,39.5915625 C22.4328125,39.5915625 22.795625,39.7414688 23.0571875,40.003125 C23.31875,40.2646875 23.46875,40.6275 23.46875,40.9978125 C23.46875,41.368125 23.31875,41.73 23.0571875,41.9915625 C22.7946875,42.2540625 22.4328125,42.4040625 22.0625,42.4040625 C21.6921875,42.4040625 21.3303125,42.2540625 21.0678125,41.9915625 C20.80625,41.73 20.65625,41.368125 20.65625,40.9978125 C20.65625,40.6275 20.80625,40.2646875 21.0678125,40.003125 C21.329375,39.7415625 21.6921875,39.5915625 22.0625,39.5915625 Z M27.9619062,28.8119062 C27.9589062,28.9055625 27.9650937,28.9984687 27.9804687,29.0894062 L27.9804687,29.3582812 C27.5895312,29.9368125 26.4285312,31.3250625 24.2915,31.3250625 C22.1534375,31.3250625 20.9010313,29.9329687 20.4570312,29.326875 L20.4570312,29.0376562 C20.46575,28.9752187 20.4701562,28.9119375 20.4703437,28.8481875 C21.6210312,29.2834687 22.8674375,29.5225312 24.1687812,29.5225312 C25.5058437,29.5225312 26.7850625,29.2704375 27.9619062,28.8119062 Z M31.8365,10.879125 L31.8365,19.0425938 C31.8365,23.2704375 28.3967188,26.7100313 24.1678438,26.7100313 C19.9398125,26.7100313 16.5000313,23.2704375 16.5000313,19.0425938 L16.5000313,10.879125 L31.8365,10.879125 Z" id="path-9"></path>
    </defs>
    <g id="Gastro-Berufe" stroke="none" stroke-width="1" fill="none" fill-rule="evenodd">
        <g id="icons/koch" transform="translate(6.000000, 6.000000)">
            <mask id="mask-2" fill="white">
                <use xlink:href="#path-1"></use>
            </mask>
            <use id="Combined-Shape" fill="#231F20" fill-rule="nonzero" xlink:href="#path-1"></use>
            <g id="*/colors/black" mask="url(#mask-2)" fill="#000000" fill-rule="evenodd">
                <rect id="Rectangle" x="0" y="0" width="50" height="48"></rect>
            </g>
        </g>
        <g id="icons/refa" transform="translate(6.000000, 66.000000)">
            <mask id="mask-4" fill="white">
                <use xlink:href="#path-3"></use>
            </mask>
            <use id="Combined-Shape" fill="#000000" fill-rule="nonzero" xlink:href="#path-3"></use>
            <g id="*/colors/black" mask="url(#mask-4)" fill="#000000" fill-rule="evenodd">
                <rect id="Rectangle" x="0" y="0" width="50" height="48"></rect>
            </g>
        </g>
        <g id="icons/hofa" transform="translate(6.000000, 126.000000)">
            <mask id="mask-6" fill="white">
                <use xlink:href="#path-5"></use>
            </mask>
            <use id="Shape" fill="#000000" fill-rule="nonzero" xlink:href="#path-5"></use>
            <g id="*/colors/black" mask="url(#mask-6)" fill="#000000" fill-rule="evenodd">
                <rect id="Rectangle" x="0" y="0" width="50" height="48"></rect>
            </g>
        </g>
        <g id="icons/hoka" transform="translate(6.000000, 186.000000)">
            <mask id="mask-8" fill="white">
                <use xlink:href="#path-7"></use>
            </mask>
            <use id="Shape" fill="#000000" fill-rule="nonzero" xlink:href="#path-7"></use>
            <g id="*/colors/black" mask="url(#mask-8)" fill="#000000" fill-rule="evenodd">
                <rect id="Rectangle" x="0" y="0" width="50" height="48"></rect>
            </g>
        </g>
        <g id="icons/faga" transform="translate(6.000000, 246.000000)">
            <mask id="mask-10" fill="white">
                <use xlink:href="#path-9"></use>
            </mask>
            <use id="Shape" fill="#000000" fill-rule="nonzero" xlink:href="#path-9"></use>
            <g id="*/colors/black" mask="url(#mask-10)" fill="#000000" fill-rule="evenodd">
                <rect id="Rectangle" x="0" y="0" width="50" height="48"></rect>
            </g>
        </g>
    </g>
</svg>