<?xml version="1.0" encoding="UTF-8"?>
<svg width="14px" height="14px" viewBox="0 0 14 14" version="1.1" xmlns="http://www.w3.org/2000/svg" xmlns:xlink="http://www.w3.org/1999/xlink">
    <title>Icons Map/Close</title>
    <g id="Page-1" stroke="none" stroke-width="1" fill="none" fill-rule="evenodd">
        <g id="Formular-320-Karte-STEP-2" transform="translate(-267.000000, -1057.000000)" fill="#8C8C8C" fill-rule="nonzero">
            <g id="Section-1" transform="translate(0.000000, 185.000000)">
                <g id="Group-6" transform="translate(0.000000, 833.000000)">
                    <g id="Rectangle-3-Copy" transform="translate(252.000000, 24.000000)">
                        <g id="" transform="translate(12.000000, 12.000000)">
                            <path d="M15.5175781,16.288125 C15.7324219,16.288125 15.9147135,16.2132552 16.0644531,16.0635156 C16.2141927,15.913776 16.2890625,15.7314844 16.2890625,15.5166406 C16.2890625,15.3017969 16.2109375,15.1227604 16.0546875,14.9795312 L11.09375,9.9990625 L16.0546875,5.01859375 C16.2109375,4.87536458 16.2890625,4.69632812 16.2890625,4.48148437 C16.2890625,4.26664062 16.2141927,4.08434896 16.0644531,3.93460937 C15.9147135,3.78486979 15.7324219,3.71 15.5175781,3.71 C15.3027344,3.71 15.1236979,3.788125 14.9804688,3.944375 L10,8.9053125 L5.01953125,3.944375 C4.87630208,3.788125 4.69726562,3.71 4.48242188,3.71 C4.26757812,3.71 4.08528646,3.78486979 3.93554688,3.93460937 C3.78580729,4.08434896 3.7109375,4.26664062 3.7109375,4.48148437 C3.7109375,4.69632812 3.7890625,4.87536458 3.9453125,5.01859375 L8.90625,9.9990625 L3.9453125,14.9795312 C3.7890625,15.1227604 3.7109375,15.3017969 3.7109375,15.5166406 C3.7109375,15.7314844 3.78580729,15.913776 3.93554688,16.0635156 C4.08528646,16.2132552 4.26757812,16.288125 4.48242188,16.288125 C4.69726562,16.288125 4.87630208,16.21 5.01953125,16.05375 L10,11.0732812 L14.9804688,16.05375 C15.1236979,16.21 15.3027344,16.288125 15.5175781,16.288125 Z"></path>
                        </g>
                    </g>
                </g>
            </g>
        </g>
    </g>
</svg>