<?xml version="1.0" encoding="UTF-8"?>
<svg width="45px" height="45px" viewBox="0 0 45 45" version="1.1" xmlns="http://www.w3.org/2000/svg" xmlns:xlink="http://www.w3.org/1999/xlink">
    <!-- Generator: Sketch 60.1 (88133) - https://sketch.com -->
    <title>room-service</title>
    <desc>Created with Sketch.</desc>
    <g id="Symbols" stroke="none" stroke-width="1" fill="none" fill-rule="evenodd">
        <g id="Button/Icon/Normal" transform="translate(-50.000000, -20.000000)" fill="#000000" fill-rule="nonzero">
            <g id="Padding-Group-2">
                <g id="Stacked-Group" transform="translate(50.000000, 20.000000)">
                    <g id="room-service">
                        <path d="M2.31373927,21 L42.6862607,21 C43.4117951,21 44,20.4207872 44,19.7063443 C44,18.9919013 43.4117951,18.4126885 42.6862607,18.4126885 L40.9441549,18.4126885 C40.2710825,9.72932615 32.8805984,2.86665489 23.8930453,2.86665489 L23.8137831,2.86665489 L23.8137831,1.29365575 C23.8137831,0.5792128 23.2255782,0 22.5000438,0 C21.7745094,0 21.1863045,0.5792128 21.1863045,1.29365575 L21.1863045,2.86665489 L21.1070423,2.86665489 C12.1194016,2.86665489 4.72891754,9.72932615 4.05584512,18.4126885 L2.31373927,18.4126885 C1.58820486,18.4126885 1,18.9919013 1,19.7063443 C1,20.4207872 1.58820486,21 2.31373927,21 Z M7.07148982,16.223478 C7.11869685,16.2285664 7.16651696,16.2314987 7.21503773,16.2314987 L10.2449584,16.2314987 C10.9704928,16.2314987 11.5586977,15.6522859 11.5586977,14.9378429 C11.5586977,14.2234 10.9704928,13.6441872 10.2449584,13.6441872 L8.00914933,13.6441872 C10.326673,8.80841574 15.3264143,5.45396639 21.1070423,5.45396639 L23.8931329,5.45396639 C31.4311061,5.45396639 37.6416771,11.1577808 38.3076553,18.4126885 L6.69251983,18.4126885 C6.76109702,17.664783 6.88958072,16.9337813 7.07148982,16.223478 Z" id="Shape"></path>
                        <path d="M42.8945107,31.5773638 C41.5799354,30.606195 39.9141505,30.2910235 38.3247423,30.7126008 L29.7257308,32.9936122 C29.8908767,32.537255 29.9816674,32.0466344 29.9816674,31.5355246 C29.9816674,29.1224528 27.9774169,27.1592817 25.5138517,27.1592817 L19.6180824,27.1592817 C18.4652253,25.7954614 16.7591866,25 14.9239492,25 C13.114991,25 11.4882294,25.7758331 10.3699131,27.0048382 C9.48257265,25.9511962 8.13996038,25.2784115 6.6398487,25.2784115 L1.31835454,25.2784115 C0.590271273,25.2784115 0,25.8565845 0,26.5697449 L0,43.7086666 C0,44.421827 0.590271273,45 1.31835454,45 L6.6398487,45 C7.98747071,45 9.20756389,44.4564347 10.0850607,43.5821159 C10.1085274,43.5833211 10.1316425,43.5855594 10.1554608,43.5855594 L15.2894849,43.5855594 C15.2940552,43.5856455 15.2984498,43.5862482 15.3031079,43.5862482 L24.9291176,43.5862482 C26.9041006,43.5862482 28.8279314,43.2047883 30.6472607,42.4525435 L44.1941446,36.8512556 C44.6887033,36.6467945 45.0072178,36.1690872 44.9998757,35.6435145 C44.9766319,34.0305529 44.2093496,32.5485326 42.8945107,31.5773638 Z M6.63993659,42.417247 L2.63670908,42.417247 L2.63670908,27.8609923 L6.6398487,27.8609923 C7.85141652,27.8609923 8.83710626,28.8264792 8.83710626,30.0132146 L8.83710626,30.5840701 C8.82849301,30.7138922 8.82251647,30.8444029 8.82251647,30.9763772 L8.82251647,37.6131423 L8.83121761,40.4142167 C8.75273157,41.5315645 7.80026436,42.417247 6.63993659,42.417247 L6.63993659,42.417247 Z M29.6218445,40.0731325 C28.128764,40.6905621 26.5499026,41.0035813 24.9291176,41.0035813 L19.1621954,41.0035813 C19.1576251,41.0035813 19.1532305,41.0028926 19.1485724,41.0028926 L11.4698603,41.0028926 L11.4682783,40.4831739 C11.4716181,40.4108593 11.4739032,40.3382002 11.4739032,40.2651108 L11.4739032,30.6726556 C11.6313148,28.9432158 13.118155,27.5826669 14.9240371,27.5826669 C16.1091499,27.5826669 17.1999565,28.1678131 17.8419072,29.1479352 C18.0843087,29.5181174 18.5024907,29.7419485 18.9515223,29.7419485 L25.5138517,29.7419485 C26.5235355,29.7419485 27.3449583,30.5465354 27.3449583,31.5355246 C27.3449583,32.5239973 26.5244144,33.3281537 25.5155217,33.3291006 L22.4805816,33.3291006 C22.4799664,33.3291006 22.479439,33.3291867 22.4789117,33.3291867 L19.7071152,33.3291867 C19.3574876,33.3291867 19.0221861,33.4652072 18.7749507,33.7073752 L17.3718699,35.0816984 C16.8570085,35.585921 16.8570085,36.4035934 17.3718699,36.9079021 C17.8867313,37.4122108 18.7214255,37.4122108 19.2362869,36.9079021 L20.2532656,35.9118536 L25.5139396,35.9118536 C25.5150822,35.9118536 25.5162248,35.9117675 25.5172795,35.9117675 L28.6365063,35.9117675 C28.7528731,35.9117675 28.8688004,35.8966158 28.9811242,35.8669152 L39.013978,33.2055631 C39.8114946,32.9939566 40.6471556,33.1521019 41.307036,33.6394511 C41.7365559,33.9567748 42.0495333,34.3826565 42.2189858,34.8645822 L29.6218445,40.0731325 Z" id="Shape"></path>
                    </g>
                </g>
            </g>
        </g>
    </g>
</svg>