<?xml version="1.0" encoding="UTF-8"?>
<svg width="20px" height="20px" viewBox="0 0 20 20" version="1.1" xmlns="http://www.w3.org/2000/svg" xmlns:xlink="http://www.w3.org/1999/xlink">
    <title>Icons Map/Close</title>
    <g id="Page-1" stroke="none" stroke-width="1" fill="none" fill-rule="evenodd">
        <g id="Formular-320-Karte-STEP-3" transform="translate(-264.000000, -1054.000000)" fill="#8C8C8C" fill-rule="nonzero">
            <g id="Section-1" transform="translate(0.000000, 185.000000)">
                <g id="Group-6" transform="translate(0.000000, 833.000000)">
                    <g id="Rectangle-3-Copy" transform="translate(252.000000, 24.000000)">
                        <g id="" transform="translate(12.000000, 12.000000)">
                            <path d="M6.89453125,19.9809375 L13.125,17.4614062 L19.3945312,19.9223437 L19.4335938,19.9247852 L19.4335938,19.9247852 L19.4726562,19.9321094 C19.4986979,19.9386198 19.5247396,19.941875 19.5507812,19.941875 C19.6809896,19.941875 19.7884115,19.8963021 19.8730469,19.8051562 C19.9576823,19.7140104 20,19.5968229 20,19.4535937 L20,3.43796875 C20,3.25567708 19.9414062,3.08966146 19.8242188,2.93992187 C19.7070312,2.79018229 19.5638021,2.68927083 19.3945312,2.6371875 L13.125,0.03953125 L6.89453125,2.50046875 L0.60546875,0.03953125 C0.579427083,0.0265104167 0.553385417,0.02 0.52734375,0.02 L0.44921875,0.02 L0.44921875,0.02 C0.319010417,0.02 0.211588542,0.0623177083 0.126953125,0.146953125 C0.0423177083,0.231588542 0,0.345520833 0,0.48875 L0,16.6996875 C0,16.8819792 0.05859375,17.0479948 0.17578125,17.1977344 C0.29296875,17.347474 0.436197917,17.4483854 0.60546875,17.5004687 L6.89453125,19.9809375 Z M7.5,18.4379687 L7.5,3.535625 L12.5,1.5825 L12.5,16.4457812 L7.5,18.4379687 Z M18.75,18.3207812 L13.75,16.4457812 L13.75,1.60203125 L18.75,3.75046875 L18.75,18.3207812 Z M6.25,18.4184375 L1.25,16.3871875 L1.25,1.6996875 L6.25,3.535625 L6.25,18.4184375 Z"></path>
                        </g>
                    </g>
                </g>
            </g>
        </g>
    </g>
</svg>